<svg width="26" height="26" viewBox="0 0 26 26" fill="none" xmlns="http://www.w3.org/2000/svg">
<path d="M24.7 9.90439C24.8707 9.90443 25.0398 9.87243 25.1975 9.81023C25.3553 9.74802 25.4986 9.65682 25.6193 9.54184C25.7401 9.42686 25.8358 9.29036 25.9011 9.14012C25.9664 8.98989 26 8.82887 26 8.66626V4.95189C26.0001 4.6921 25.9143 4.43887 25.7548 4.22814C25.5953 4.0174 25.3702 3.85985 25.1113 3.77785L13.4113 0.0634779C13.1443 -0.0211593 12.8557 -0.0211593 12.5887 0.0634779L0.888667 3.77785C0.629841 3.85985 0.404701 4.0174 0.245188 4.22814C0.0856742 4.43887 -0.000111971 4.6921 1.09686e-07 4.95189V8.66626C-4.42977e-05 8.82887 0.033551 8.98989 0.0988664 9.14012C0.164182 9.29036 0.259937 9.42686 0.380662 9.54184C0.501387 9.65682 0.644716 9.74802 0.802459 9.81023C0.960202 9.87243 1.12927 9.90443 1.3 9.90439H2.6V18.7994C1.84176 19.0538 1.18477 19.5254 0.719247 20.1496C0.25372 20.7738 0.00247322 21.52 1.09686e-07 22.2856V24.7619C-4.42977e-05 24.9245 0.033551 25.0855 0.0988664 25.2357C0.164182 25.386 0.259937 25.5225 0.380662 25.6375C0.501387 25.7524 0.644716 25.8436 0.802459 25.9058C0.960202 25.968 1.12927 26 1.3 26H24.7C24.8707 26 25.0398 25.968 25.1975 25.9058C25.3553 25.8436 25.4986 25.7524 25.6193 25.6375C25.7401 25.5225 25.8358 25.386 25.9011 25.2357C25.9664 25.0855 26 24.9245 26 24.7619V22.2856C25.9975 21.52 25.7463 20.7738 25.2808 20.1496C24.8152 19.5254 24.1582 19.0538 23.4 18.7994V9.90439H24.7ZM23.4 23.5238H2.6V22.2856C2.60034 21.9574 2.73742 21.6426 2.98114 21.4105C3.22486 21.1784 3.55532 21.0478 3.9 21.0475H22.1C22.4447 21.0478 22.7751 21.1784 23.0189 21.4105C23.2626 21.6426 23.3997 21.9574 23.4 22.2856V23.5238ZM5.2 18.5713V9.90439H7.8V18.5713H5.2ZM10.4 18.5713V9.90439H15.6V18.5713H10.4ZM18.2 18.5713V9.90439H20.8V18.5713H18.2ZM2.6 7.42814V5.8442L13 2.54213L23.4 5.8442V7.42814H2.6Z" fill="#505050"/>
</svg>
