<svg width="26" height="26" viewBox="0 0 26 26" fill="none" xmlns="http://www.w3.org/2000/svg">
<path d="M7.3916 17.1587C7.16396 17.3801 7.03619 17.6797 7.03619 17.9919C7.03619 18.3041 7.16396 18.6036 7.3916 18.8251C7.50522 18.9358 7.64039 19.0238 7.78933 19.0837C7.93826 19.1437 8.09801 19.1746 8.25935 19.1746C8.4207 19.1746 8.58044 19.1437 8.72938 19.0837C8.87831 19.0238 9.01349 18.9358 9.12711 18.8251C9.35474 18.6036 9.48251 18.3041 9.48251 17.9919C9.48251 17.6797 9.35474 17.3801 9.12711 17.1587C9.01349 17.0479 8.87831 16.96 8.72938 16.9C8.58044 16.84 8.4207 16.8091 8.25935 16.8091C8.09801 16.8091 7.93826 16.84 7.78933 16.9C7.64039 16.96 7.50522 17.0479 7.3916 17.1587ZM7.3916 7.12506C7.16396 7.34649 7.03619 7.64602 7.03619 7.95824C7.03619 8.27046 7.16396 8.57 7.3916 8.79142C7.50522 8.90219 7.64039 8.99011 7.78933 9.05011C7.93826 9.11011 8.09801 9.141 8.25935 9.141C8.4207 9.141 8.58044 9.11011 8.72938 9.05011C8.87831 8.99011 9.01349 8.90219 9.12711 8.79142C9.35474 8.57 9.48251 8.27046 9.48251 7.95824C9.48251 7.64602 9.35474 7.34649 9.12711 7.12506C9.01349 7.01429 8.87831 6.92637 8.72938 6.86637C8.58044 6.80637 8.4207 6.77548 8.25935 6.77548C8.09801 6.77548 7.93826 6.80637 7.78933 6.86637C7.64039 6.92637 7.50522 7.01429 7.3916 7.12506ZM13.4414 18.9432C13.1997 18.9432 12.9634 19.0126 12.7624 19.1424C12.5614 19.2723 12.4048 19.4568 12.3123 19.6728C12.2198 19.8887 12.1956 20.1264 12.2427 20.3556C12.2899 20.5849 12.4063 20.7955 12.5772 20.9607C12.7481 21.126 12.9659 21.2386 13.203 21.2842C13.4401 21.3298 13.6858 21.3064 13.9092 21.2169C14.1325 21.1275 14.3234 20.976 14.4577 20.7816C14.592 20.5873 14.6636 20.3588 14.6636 20.1251C14.6719 19.965 14.6464 19.8049 14.5887 19.6546C14.531 19.5044 14.4423 19.367 14.328 19.2509C14.2137 19.1348 14.0761 19.0425 13.9237 18.9794C13.7713 18.9164 13.6072 18.8839 13.4414 18.8841V18.9432ZM6.1083 11.8523C5.86657 11.8523 5.63027 11.9216 5.42929 12.0515C5.2283 12.1814 5.07165 12.3659 4.97914 12.5819C4.88664 12.7978 4.86243 13.0355 4.90959 13.2647C4.95675 13.494 5.07315 13.7045 5.24408 13.8698C5.41501 14.0351 5.63278 14.1477 5.86986 14.1933C6.10694 14.2389 6.35268 14.2155 6.57601 14.126C6.79934 14.0366 6.99022 13.8851 7.12451 13.6907C7.25881 13.4964 7.33049 13.2679 7.33049 13.0342C7.33878 12.8741 7.3133 12.714 7.2556 12.5637C7.1979 12.4134 7.10919 12.2761 6.99486 12.16C6.88053 12.0439 6.74298 11.9516 6.59057 11.8885C6.43816 11.8255 6.27407 11.793 6.1083 11.7932V11.8523ZM13.4414 4.76143C13.1997 4.76143 12.9634 4.83074 12.7624 4.9606C12.5614 5.09046 12.4048 5.27503 12.3123 5.49098C12.2198 5.70693 12.1956 5.94455 12.2427 6.1738C12.2899 6.40305 12.4063 6.61363 12.5772 6.77891C12.7481 6.94419 12.9659 7.05675 13.203 7.10235C13.4401 7.14795 13.6858 7.12455 13.9092 7.0351C14.1325 6.94565 14.3234 6.79417 14.4577 6.59983C14.592 6.40548 14.6636 6.17698 14.6636 5.94324C14.6719 5.78314 14.6464 5.62309 14.5887 5.47281C14.531 5.32254 14.4423 5.18518 14.328 5.0691C14.2137 4.95303 14.0761 4.86065 13.9237 4.7976C13.7713 4.73455 13.6072 4.70213 13.4414 4.70233V4.76143ZM17.768 7.18415C17.5963 7.34915 17.4792 7.55972 17.4315 7.78916C17.3837 8.0186 17.4075 8.25659 17.4998 8.47294C17.5921 8.6893 17.7487 8.87429 17.9499 9.00446C18.151 9.13463 18.3876 9.20412 18.6296 9.20412C18.8717 9.20412 19.1083 9.13463 19.3094 9.00446C19.5106 8.87429 19.6672 8.6893 19.7595 8.47294C19.8518 8.25659 19.8756 8.0186 19.8278 7.78916C19.7801 7.55972 19.6629 7.34915 19.4913 7.18415C19.2705 6.95601 18.9652 6.82171 18.6423 6.81064C18.3193 6.79956 18.005 6.91261 17.768 7.12506V7.18415ZM25.4678 7.18415C24.3504 5.02414 22.6328 3.20783 20.5076 1.93889C18.3825 0.66995 15.9338 -0.00144091 13.4361 2.32188e-06C10.9384 0.00144555 8.49049 0.675666 6.36689 1.94706C4.24329 3.21845 2.52796 5.03675 1.41323 7.19805C0.298502 9.35935 -0.171537 11.7782 0.055821 14.1834C0.283179 16.5885 1.19894 18.8849 2.70042 20.8149C4.20191 22.745 6.22973 24.2324 8.55652 25.1105C10.8833 25.9885 13.417 26.2224 15.8736 25.786C16.4913 25.6736 17.0797 25.4432 17.6044 25.1084C18.129 24.7736 18.5793 24.341 18.9291 23.836C19.3059 23.2869 19.566 22.6707 19.694 22.0235C19.822 21.3762 19.8154 20.7108 19.6746 20.066C19.5976 19.6763 19.5567 19.2808 19.5524 18.8841C19.5577 17.7389 19.9071 16.6199 20.5581 15.6631C21.209 14.7064 22.1335 13.9531 23.219 13.4951C23.8042 13.2417 24.3296 12.875 24.7626 12.4176C25.1956 11.9603 25.5271 11.422 25.7367 10.836C25.9486 10.2371 26.034 9.60323 25.9878 8.97187C25.9416 8.34051 25.7648 7.72455 25.4678 7.16052V7.18415ZM23.3901 10.0678C23.2858 10.3506 23.1239 10.6103 22.9139 10.8316C22.704 11.0529 22.4503 11.2312 22.1679 11.356C20.6646 12.0067 19.3874 13.0632 18.4899 14.3986C17.5923 15.734 17.1125 17.2915 17.108 18.8841C17.1098 19.4397 17.1671 19.9938 17.2791 20.5387C17.3538 20.8717 17.3587 21.2158 17.2936 21.5507C17.2286 21.8857 17.0948 22.2046 16.9002 22.4887C16.7356 22.7374 16.519 22.9499 16.2643 23.1128C16.0096 23.2756 15.7225 23.3851 15.4214 23.4342C14.7686 23.5528 14.1057 23.6121 13.4414 23.6114C11.9677 23.6121 10.5088 23.3264 9.15146 22.7713C7.79411 22.2162 6.56595 21.403 5.53993 20.38C4.51391 19.357 3.71095 18.1451 3.17873 16.8162C2.6465 15.4873 2.39588 14.0685 2.44173 12.6442C2.53658 9.98836 3.65048 7.46182 5.56642 5.55674C7.48235 3.65166 10.0631 2.50448 12.8059 2.3387H13.4292C15.4773 2.33919 17.4846 2.8926 19.225 3.93659C20.9654 4.98059 22.3698 6.4737 23.2801 8.24779C23.5603 8.80913 23.5998 9.45476 23.3901 10.0442V10.0678ZM13.4414 11.7932C13.1997 11.7932 12.9634 11.8626 12.7624 11.9924C12.5614 12.1223 12.4048 12.3068 12.3123 12.5228C12.2198 12.7387 12.1956 12.9764 12.2427 13.2056C12.2899 13.4349 12.4063 13.6455 12.5772 13.8107C12.7481 13.976 12.9659 14.0886 13.203 14.1342C13.4401 14.1798 13.6858 14.1564 13.9092 14.0669C14.1325 13.9775 14.3234 13.826 14.4577 13.6316C14.592 13.4373 14.6636 13.2088 14.6636 12.9751C14.6636 12.6616 14.5349 12.361 14.3057 12.1394C14.0765 11.9178 13.7656 11.7932 13.4414 11.7932Z" fill="#505050"/>
</svg>
