<svg width="26" height="26" viewBox="0 0 26 26" fill="none" xmlns="http://www.w3.org/2000/svg">
<path d="M25.116 2.95972L17.316 0.0726091H17.225C17.1645 0.0658556 17.1035 0.0658556 17.043 0.0726091H16.744H16.575H16.484L9.1 2.88754L1.716 0.0726091C1.5205 0.00102552 1.31249 -0.0179806 1.10908 0.0171547C0.905671 0.0522901 0.712685 0.140563 0.546004 0.274707C0.37799 0.407537 0.240849 0.582852 0.14591 0.786168C0.0509703 0.989484 0.000958039 1.21497 4.33359e-06 1.44399V21.6537C-0.000699177 21.9564 0.0842689 22.2516 0.242899 22.4977C0.401529 22.7438 0.625797 22.9283 0.884004 23.0251L8.684 25.9122C8.94588 26.007 9.22812 26.007 9.49 25.9122L16.9 23.1695L24.284 25.9844C24.422 26.0052 24.562 26.0052 24.7 25.9844C24.9718 25.9886 25.2371 25.8921 25.454 25.7101C25.622 25.5773 25.7592 25.402 25.8541 25.1987C25.949 24.9953 25.999 24.7699 26 24.5408V4.33109C26.0007 4.02846 25.9157 3.73324 25.7571 3.48715C25.5985 3.24106 25.3742 3.05656 25.116 2.95972ZM7.8 22.5343L2.6 20.6144V3.45053L7.8 5.37045V22.5343ZM15.6 20.6144L10.4 22.5343V5.37045L15.6 3.45053V20.6144ZM23.4 22.5343L18.2 20.6144V3.45053L23.4 5.37045V22.5343Z" fill="#505050"/>
</svg>
