<svg width="26" height="26" viewBox="0 0 26 26" fill="none" xmlns="http://www.w3.org/2000/svg">
<path d="M10.4 14.3H1.3C0.955218 14.3 0.624558 14.437 0.380761 14.6808C0.136964 14.9246 0 15.2552 0 15.6V24.7C0 25.0448 0.136964 25.3754 0.380761 25.6192C0.624558 25.863 0.955218 26 1.3 26H10.4C10.7448 26 11.0754 25.863 11.3192 25.6192C11.563 25.3754 11.7 25.0448 11.7 24.7V15.6C11.7 15.2552 11.563 14.9246 11.3192 14.6808C11.0754 14.437 10.7448 14.3 10.4 14.3ZM9.1 23.4H2.6V16.9H9.1V23.4ZM24.7 0H15.6C15.2552 0 14.9246 0.136964 14.6808 0.380761C14.437 0.624558 14.3 0.955218 14.3 1.3V10.4C14.3 10.7448 14.437 11.0754 14.6808 11.3192C14.9246 11.563 15.2552 11.7 15.6 11.7H24.7C25.0448 11.7 25.3754 11.563 25.6192 11.3192C25.863 11.0754 26 10.7448 26 10.4V1.3C26 0.955218 25.863 0.624558 25.6192 0.380761C25.3754 0.136964 25.0448 0 24.7 0ZM23.4 9.1H16.9V2.6H23.4V9.1ZM24.7 14.3H15.6C15.2552 14.3 14.9246 14.437 14.6808 14.6808C14.437 14.9246 14.3 15.2552 14.3 15.6V24.7C14.3 25.0448 14.437 25.3754 14.6808 25.6192C14.9246 25.863 15.2552 26 15.6 26H24.7C25.0448 26 25.3754 25.863 25.6192 25.6192C25.863 25.3754 26 25.0448 26 24.7V15.6C26 15.2552 25.863 14.9246 25.6192 14.6808C25.3754 14.437 25.0448 14.3 24.7 14.3ZM23.4 23.4H16.9V16.9H23.4V23.4ZM10.4 0H1.3C0.955218 0 0.624558 0.136964 0.380761 0.380761C0.136964 0.624558 0 0.955218 0 1.3V10.4C0 10.7448 0.136964 11.0754 0.380761 11.3192C0.624558 11.563 0.955218 11.7 1.3 11.7H10.4C10.7448 11.7 11.0754 11.563 11.3192 11.3192C11.563 11.0754 11.7 10.7448 11.7 10.4V1.3C11.7 0.955218 11.563 0.624558 11.3192 0.380761C11.0754 0.136964 10.7448 0 10.4 0ZM9.1 9.1H2.6V2.6H9.1V9.1Z" fill="#505050"/>
</svg>
